<svg width="40" height="40" viewBox="0 0 40 40" fill="none" xmlns="http://www.w3.org/2000/svg">
<path d="M20.5 36L7.94263 28V12L20.5 4L33.0574 12V28L20.5 36Z" fill="black"/>
<path d="M16.536 11.104V10.24H24.248V11.104L22.488 11.264C22.1467 11.3067 21.944 11.392 21.88 11.52C21.816 11.648 21.784 12.0853 21.784 12.832V29.408C21.784 30.1547 21.816 30.592 21.88 30.72C21.944 30.848 22.1467 30.9333 22.488 30.976L24.248 31.168V32H16.536V31.168L18.296 30.976C18.6373 30.9333 18.84 30.848 18.904 30.72C18.968 30.592 19 30.1547 19 29.408V12.832C19 12.0853 18.968 11.648 18.904 11.52C18.84 11.392 18.6373 11.3067 18.296 11.264L16.536 11.104Z" fill="#FF0000"/>
</svg>
